<?xml version="1.0" standalone="no"?>
<!DOCTYPE svg PUBLIC "-//W3C//DTD SVG 20010904//EN"
 "http://www.w3.org/TR/2001/REC-SVG-20010904/DTD/svg10.dtd">
<svg version="1.0" xmlns="http://www.w3.org/2000/svg"
 width="800.000000pt" height="800.000000pt" viewBox="0 0 800.000000 800.000000"
 preserveAspectRatio="xMidYMid meet">
<metadata>
Created by potrace 1.14, written by Peter Selinger 2001-2017
</metadata>
<g transform="translate(0.000000,800.000000) scale(0.100000,-0.100000)"
fill="#000000" stroke="none">
<path d="M5007 7874 c-69 -18 -166 -68 -212 -109 -22 -20 -45 -40 -51 -43 -20
-13 -84 -108 -108 -163 -31 -71 -48 -154 -47 -237 0 -71 1 -80 22 -152 7 -25
13 -47 14 -50 3 -20 71 -131 96 -158 32 -34 32 -40 1 -111 -9 -20 -16 -38 -17
-41 -1 -3 -7 -18 -14 -35 -7 -16 -14 -34 -15 -40 -1 -5 -10 -28 -20 -50 -10
-22 -26 -62 -37 -90 -11 -27 -23 -59 -28 -70 -5 -11 -15 -35 -21 -53 -7 -18
-16 -34 -20 -37 -4 -3 -34 4 -66 14 -118 37 -274 74 -282 67 -3 -3 -10 -2 -16
3 -18 13 -214 34 -333 35 -46 1 -83 3 -83 6 0 3 -17 4 -37 3 -21 -2 -78 -5
-128 -7 -49 -3 -103 -7 -120 -10 -16 -2 -57 -7 -90 -11 -32 -4 -62 -8 -65 -10
-3 -2 -21 -6 -40 -9 -19 -3 -66 -12 -105 -20 -38 -8 -72 -12 -75 -10 -2 3 -17
39 -31 80 l-27 76 45 45 c24 25 50 58 58 72 19 38 42 131 39 164 -7 72 -30
147 -45 147 -5 0 -9 6 -9 13 0 24 -76 93 -130 119 -83 39 -206 37 -288 -6 -90
-47 -163 -163 -167 -268 -5 -149 99 -291 237 -324 18 -4 38 -7 44 -6 8 2 45
-84 59 -138 2 -8 6 -22 9 -30 5 -12 -4 -20 -31 -30 -21 -8 -43 -15 -49 -16
-14 -2 -312 -149 -339 -166 -10 -7 -58 -38 -105 -68 -47 -30 -87 -57 -90 -60
-3 -3 -32 -25 -65 -49 -33 -25 -76 -59 -95 -75 -55 -48 -262 -257 -296 -298
l-30 -37 -69 49 c-39 27 -74 49 -78 50 -4 0 -20 11 -35 25 -15 14 -32 25 -39
25 -7 0 -13 4 -13 9 0 5 -13 14 -30 21 -16 7 -30 15 -30 19 0 3 -19 17 -41 31
-37 23 -40 28 -34 55 3 16 9 41 12 55 7 35 7 137 -1 182 -9 59 -54 161 -91
206 -36 44 -92 96 -138 125 -58 37 -203 81 -262 79 -100 -4 -199 -30 -274 -73
-102 -58 -211 -195 -227 -284 -3 -15 -9 -35 -13 -44 -13 -25 -11 -166 3 -218
35 -131 116 -238 232 -308 79 -48 142 -66 244 -70 111 -5 159 5 257 53 l41 20
200 -135 200 -135 -35 -61 c-56 -97 -160 -315 -168 -351 -1 -6 -8 -24 -15 -41
-14 -35 -69 -218 -76 -255 -3 -14 -7 -32 -11 -40 -7 -17 -10 -32 -17 -75 -3
-16 -7 -46 -11 -65 -3 -19 -8 -53 -10 -75 -3 -22 -7 -53 -10 -70 -3 -16 -8
-79 -11 -140 -4 -60 -8 -112 -10 -114 -4 -5 -8 -5 -124 -16 -41 -3 -93 -8
-115 -10 -22 -3 -70 -7 -106 -9 l-65 -5 -12 32 c-14 37 -64 96 -107 123 -131
83 -304 64 -406 -47 -63 -66 -84 -121 -83 -219 0 -67 5 -95 23 -132 26 -54
102 -138 125 -138 9 0 16 -4 16 -9 0 -5 14 -14 30 -20 17 -5 30 -7 30 -4 0 3
6 1 13 -5 12 -10 127 -10 162 0 90 27 172 97 204 176 7 17 21 32 30 33 22 1
64 5 146 13 39 4 90 9 115 12 25 2 64 6 87 9 23 3 44 1 47 -3 3 -5 7 -35 11
-68 6 -63 12 -107 18 -139 5 -21 19 -118 19 -122 -1 -2 4 -17 9 -35 15 -47 29
-99 35 -128 2 -14 8 -34 13 -45 5 -11 26 -69 46 -128 45 -131 182 -411 222
-454 6 -7 15 -22 18 -33 3 -11 11 -20 16 -20 5 0 9 -5 9 -11 0 -6 32 -53 71
-106 39 -52 72 -100 75 -107 3 -7 -30 -39 -73 -72 -43 -32 -80 -61 -83 -64 -3
-3 -44 -36 -92 -73 l-87 -68 -38 24 c-42 26 -109 58 -127 61 -6 1 -16 4 -21 8
-6 4 -40 10 -75 14 -56 7 -93 7 -160 3 -96 -7 -258 -91 -333 -174 -37 -41
-103 -151 -120 -200 -45 -134 -42 -283 10 -405 3 -8 7 -17 7 -20 2 -11 51 -85
58 -88 4 -2 8 -9 8 -16 0 -16 79 -91 140 -133 72 -49 191 -85 285 -86 133 -1
221 24 325 92 190 125 280 339 246 583 -3 24 -1 41 7 48 7 5 28 23 48 40 20
16 41 30 47 30 6 0 15 6 19 13 4 7 46 42 93 77 47 36 87 67 90 70 3 3 24 20
47 39 36 27 45 30 56 19 21 -20 108 -91 131 -107 12 -8 23 -18 26 -21 9 -13
219 -150 229 -150 5 0 11 -4 13 -8 2 -7 257 -135 323 -163 71 -30 306 -103
368 -115 12 -2 36 -7 52 -11 17 -3 37 -7 45 -9 8 -1 33 -5 55 -10 22 -4 57 -8
77 -8 21 -1 38 -4 38 -7 0 -3 15 -6 33 -7 218 -8 301 -13 308 -18 5 -3 9 -1 9
4 0 6 9 8 20 5 10 -3 19 -8 18 -12 0 -3 1 -8 2 -11 1 -3 4 -25 5 -50 2 -25 6
-67 9 -95 3 -27 8 -79 10 -115 l6 -66 -62 -29 c-138 -66 -250 -223 -265 -370
-7 -78 -7 -87 1 -147 49 -367 476 -563 784 -361 78 52 165 161 189 238 85 272
-38 545 -294 656 -28 12 -33 19 -34 49 -1 19 -3 51 -5 70 -1 19 -5 64 -8 100
-3 36 -8 88 -11 117 -5 55 -4 57 57 68 93 18 147 31 245 61 304 92 576 233
833 433 79 61 280 254 343 328 30 36 39 39 59 20 7 -6 23 -19 34 -27 12 -8 68
-51 124 -94 92 -72 101 -82 95 -105 -25 -99 -20 -172 19 -253 35 -74 140 -154
209 -162 15 -1 29 -5 32 -8 5 -4 85 -1 115 5 35 7 108 47 145 80 23 19 54 61
70 93 38 78 41 193 6 265 -80 167 -260 236 -432 165 -10 -5 -37 10 -76 41
-103 81 -215 168 -227 175 -8 5 -7 14 3 30 8 13 19 32 26 43 6 11 23 39 38 62
15 24 40 67 57 98 16 30 34 62 39 72 28 51 61 126 61 139 0 8 4 14 9 14 5 0
11 10 14 23 3 12 17 54 32 92 31 79 91 286 99 341 4 20 8 39 10 43 2 3 7 30
11 60 4 30 9 63 11 75 25 125 24 617 -1 696 -5 16 2 20 47 29 43 8 134 23 210
35 7 1 19 5 26 9 6 5 12 4 12 -2 0 -6 10 -7 28 -1 31 10 78 19 141 25 24 3 46
7 49 9 2 3 16 -18 31 -46 25 -48 132 -168 151 -168 5 0 15 -6 22 -13 25 -25
124 -59 176 -61 17 -1 32 -4 32 -8 0 -6 109 -3 146 6 129 28 237 95 321 200
42 51 87 159 97 232 2 11 6 26 10 32 3 6 3 13 -2 16 -4 2 -7 25 -6 50 4 82
-42 214 -96 276 -60 69 -74 82 -122 114 -107 70 -247 96 -376 70 -163 -33
-291 -137 -368 -298 -24 -50 -44 -88 -44 -85 0 4 -20 3 -45 -2 -41 -8 -99 -17
-160 -25 -11 -1 -20 -3 -20 -4 0 -1 -11 -3 -25 -5 -14 -2 -43 -6 -65 -9 -38
-5 -82 -12 -135 -22 -14 -2 -43 -7 -65 -9 l-40 -5 -33 97 c-47 141 -69 193
-135 327 -52 104 -157 283 -187 319 -6 6 -27 35 -47 62 -151 205 -362 409
-583 562 -98 67 -242 153 -258 153 -19 0 -24 38 -8 72 8 18 42 103 76 188 34
85 70 173 80 194 l17 39 89 2 c231 7 426 147 506 365 79 214 18 458 -156 618
-25 23 -57 48 -71 54 -14 6 -25 15 -25 20 0 4 -8 8 -18 8 -10 0 -22 4 -27 9
-6 5 -43 19 -83 31 -82 24 -203 26 -285 4z"/>
</g>
</svg>
